# xmcd
#
# Track frame offsets: 
#        150
#        7470
#        37120
#        61048
#        90812
#        115711
#        151725
#        168220
#        242917
#
# Disc length: 3648 seconds
#
# Revision: 5
# Processed by: cddbd v1.5.2PL0 Copyright (c) Steve Scherf et al.
# Submitted via: ExactAudioCopyFreeDBPlugin 1.0
#
DISCID=620e3e09
DTITLE=Popa Chubby - One Night Live in New York City
DYEAR=1999
DGENRE=Blues
TTITLE0=Intro
TTITLE1=The Real Thing
TTITLE2=Lie Down With The Blues
TTITLE3=Nobody Knows You
TTITLE4=Shakedown
TTITLE5=Arlita
TTITLE6=Walk On The Wild Side
TTITLE7=New York City Blues
TTITLE8=What's Your Problem ? - Pipeline
EXTD=YEAR: 2000 ID3G: 0
EXTT0=
EXTT1=
EXTT2=
EXTT3=
EXTT4=
EXTT5=
EXTT6=
EXTT7=
EXTT8=
PLAYORDER=
